<svg viewBox="0 0 800 800" xmlns="http://www.w3.org/2000/svg">
  <defs>
    <!-- Shadow filter -->
    <filter id="shadow" x="-50%" y="-50%" width="200%" height="200%">
      <feGaussianBlur in="SourceAlpha" stdDeviation="8"/>
      <feOffset dx="0" dy="4" result="offsetblur"/>
      <feComponentTransfer>
        <feFuncA type="linear" slope="0.3"/>
      </feComponentTransfer>
      <feMerge>
        <feMergeNode/>
        <feMergeNode in="SourceGraphic"/>
      </feMerge>
    </filter>
  </defs>
  
  <!-- Main circle background -->
  <circle cx="400" cy="400" r="320" fill="#1a2942" filter="url(#shadow)"/>
  
  <!-- Double ring border -->
  <circle cx="400" cy="400" r="320" fill="none" stroke="#e8e8e8" stroke-width="8"/>
  <circle cx="400" cy="400" r="305" fill="none" stroke="#e8e8e8" stroke-width="3"/>
  
  <!-- Hawk head and body -->
  <g transform="translate(400, 350)">
    <!-- Neck and chest feathers -->
    <path d="M -60,50 Q -70,30 -75,10 L -80,-10 Q -70,-5 -60,0 L -50,10 Q -45,25 -40,40 Z" fill="#9ca3af"/>
    <path d="M 60,50 Q 70,30 75,10 L 80,-10 Q 70,-5 60,0 L 50,10 Q 45,25 40,40 Z" fill="#9ca3af"/>
    
    <!-- Main head shape -->
    <ellipse cx="0" cy="-30" rx="85" ry="75" fill="#b8bfc7"/>
    
    <!-- Back head feathers -->
    <path d="M 50,-50 Q 80,-45 100,-30 L 110,-20 Q 115,-10 110,0 L 100,5 Q 85,8 70,5 L 60,-10 Z" fill="#6b7280"/>
    <path d="M 60,-60 Q 85,-70 105,-60 L 115,-50 Q 118,-40 112,-30 L 95,-25 Q 80,-28 70,-35 Z" fill="#4b5563"/>
    <path d="M 30,-70 Q 50,-85 70,-80 L 80,-75 Q 85,-65 80,-55 L 70,-50 Q 55,-52 45,-60 Z" fill="#374151"/>
    
    <!-- Forehead feathers -->
    <path d="M -20,-80 Q -10,-95 10,-95 Q 20,-90 15,-80 L 5,-75 Q -5,-75 -15,-78 Z" fill="#d1d5db"/>
    
    <!-- Upper beak -->
    <path d="M -100,-35 Q -95,-40 -85,-38 L -70,-30 Q -65,-25 -68,-20 L -75,-18 Q -85,-20 -95,-25 Z" fill="#9ca3af"/>
    
    <!-- Main beak -->
    <path d="M -70,-30 Q -60,-32 -50,-28 L -30,-15 Q -25,-10 -28,-5 L -35,-3 Q -45,-5 -55,-10 L -65,-20 Z" fill="#d1d5db"/>
    <path d="M -50,-28 L -30,-15 L -28,-5 L -35,-8 L -48,-18 Z" fill="#e5e7eb"/>
    
    <!-- Beak highlight -->
    <path d="M -65,-28 Q -55,-30 -48,-26 L -42,-22 Q -40,-20 -42,-18 L -50,-20 Q -58,-24 -63,-26 Z" fill="#f3f4f6" opacity="0.6"/>
    
    <!-- Eye socket dark area -->
    <ellipse cx="-15" cy="-35" rx="28" ry="32" fill="#1f2937"/>
    
    <!-- Eye white -->
    <ellipse cx="-15" cy="-35" rx="22" ry="26" fill="#ffffff"/>
    
    <!-- Iris -->
    <ellipse cx="-15" cy="-35" rx="18" ry="22" fill="#1a2942"/>
    
    <!-- Dollar sign in eye -->
    <text x="-15" y="-28" font-family="Arial, sans-serif" font-size="24" font-weight="bold" fill="#4ade80" text-anchor="middle">$</text>
    
    <!-- Eye highlight -->
    <ellipse cx="-20" cy="-42" rx="6" ry="8" fill="#ffffff" opacity="0.9"/>
    <ellipse cx="-12" cy="-30" rx="3" ry="4" fill="#ffffff" opacity="0.5"/>
    
    <!-- Shadow under head -->
    <ellipse cx="0" cy="30" rx="60" ry="15" fill="#000000" opacity="0.15"/>
  </g>
  
  <!-- Green upward arrow (price increase/tracking) -->
  <g transform="translate(480, 420)">
    <!-- Arrow shaft with curve -->
    <path d="M -10,80 Q -8,50 0,20 Q 8,-10 20,-40 L 30,-40 Q 18,-8 10,20 Q 2,50 0,80 Z" fill="#4ade80"/>
    <path d="M -10,80 Q -8,50 0,20 Q 8,-10 20,-40 L 30,-40 Q 18,-8 10,20 Q 2,50 0,80 Z" fill="#22c55e" opacity="0.5"/>
    
    <!-- Arrow head -->
    <path d="M 20,-40 L 50,-20 L 35,-25 L 30,-40 Z" fill="#4ade80"/>
    <path d="M 20,-40 L 0,-70 L 15,-50 L 30,-40 Z" fill="#4ade80"/>
    
    <!-- Arrow highlight -->
    <path d="M 0,80 Q 2,50 8,20 Q 14,-5 22,-35 L 25,-35 Q 16,-5 10,20 Q 4,50 2,80 Z" fill="#86efac" opacity="0.6"/>
  </g>
  
  <!-- Bottom chart/graph element -->
  <g transform="translate(400, 600)">
    <path d="M -80,0 L -60,-15 L -30,-8 L 0,-20 L 30,-10 L 60,-25 L 80,-15 L 80,0 Z" fill="#6b7280" opacity="0.4"/>
    <path d="M -80,0 L -60,-15 L -30,-8 L 0,-20 L 30,-10 L 60,-25 L 80,-15" fill="none" stroke="#9ca3af" stroke-width="3" stroke-linecap="round" stroke-linejoin="round"/>
  </g>
  
  <!-- Banner background -->
  <g filter="url(#shadow)">
    <rect x="150" y="540" width="500" height="100" rx="8" fill="#d1d5db"/>
    <rect x="150" y="540" width="500" height="100" rx="8" fill="url(#bannerGradient)"/>
  </g>
  
  <defs>
    <linearGradient id="bannerGradient" x1="0%" y1="0%" x2="0%" y2="100%">
      <stop offset="0%" style="stop-color:#e5e7eb;stop-opacity:1" />
      <stop offset="100%" style="stop-color:#cbd5e1;stop-opacity:1" />
    </linearGradient>
  </defs>
  
  <!-- Banner top edge highlight -->
  <rect x="150" y="540" width="500" height="3" rx="8" fill="#f3f4f6"/>
  
  <!-- Text PRICEHAWK -->
  <text x="400" y="605" font-family="'Arial Black', 'Arial Bold', Arial, sans-serif" font-size="56" font-weight="900" fill="#1a2942" text-anchor="middle" letter-spacing="2">PRICEHAWK</text>
  
  <!-- Text shadow/depth effect -->
  <text x="400" y="608" font-family="'Arial Black', 'Arial Bold', Arial, sans-serif" font-size="56" font-weight="900" fill="#0f172a" text-anchor="middle" letter-spacing="2" opacity="0.3">PRICEHAWK</text>
</svg>